<svg width="512" height="512" viewBox="0 0 512 512" fill="none" xmlns="http://www.w3.org/2000/svg">
<path d="M505.749 6.25051C501.749 2.25112 496.323 0.00439453 490.667 0.00439453C485.01 0.00439453 479.584 2.25112 475.584 6.25051L256 225.835L36.4158 6.25051C32.4153 2.25112 26.99 0.00439453 21.3332 0.00439453C15.6763 0.00439453 10.2511 2.25112 6.25051 6.25051V6.25051C2.25112 10.2511 0.00439453 15.6763 0.00439453 21.3332C0.00439453 26.99 2.25112 32.4153 6.25051 36.4158L225.835 256L6.25051 475.584C2.25112 479.584 0.00439453 485.01 0.00439453 490.667C0.00439453 496.323 2.25112 501.749 6.25051 505.749V505.749C10.2511 509.749 15.6763 511.995 21.3332 511.995C26.99 511.995 32.4153 509.749 36.4158 505.749L256 286.165L475.584 505.749C479.584 509.749 485.01 511.995 490.667 511.995C496.323 511.995 501.749 509.749 505.749 505.749C509.749 501.749 511.995 496.323 511.995 490.667C511.995 485.01 509.749 479.584 505.749 475.584L286.165 256L505.749 36.4158C509.749 32.4153 511.995 26.99 511.995 21.3332C511.995 15.6763 509.749 10.2511 505.749 6.25051V6.25051Z" fill="#30257D"/>
</svg>
