<svg width="472" height="502" viewBox="0 0 472 502" fill="none" xmlns="http://www.w3.org/2000/svg">
<path d="M446.63 251.914L431.592 217.707C430.702 215.681 429.713 213.672 428.654 211.739C422.382 200.27 412.089 191.636 399.673 187.426C387.296 183.23 373.879 183.79 361.889 189.004L356.094 191.524L348.689 174.679C348.688 174.677 348.687 174.674 348.686 174.672L343.23 162.262C338.568 151.658 330.042 143.522 319.223 139.355C308.457 135.209 296.745 135.51 286.236 140.201L267.008 148.531C263.451 143.471 259.131 139.61 254.094 137.003C243.573 131.558 230.916 132.016 216.473 138.366L202.714 144.414L184.904 103.9C177.654 87.407 164.198 76.09 147.988 72.85C132.749 69.804 117.233 74.115 106.478 84.38C90.3387 99.782 85.7017 122.908 94.6557 143.275L162.122 297.71C156.473 296.567 150.52 296.044 144.479 296.191C128.788 296.578 114.679 301.568 105.232 309.981C104.612 310.383 104.029 310.859 103.495 311.409C94.0007 321.186 89.3207 333.013 89.9577 345.61C90.7547 361.353 99.7477 376.878 115.964 390.508C116.046 390.577 116.129 390.645 116.214 390.711L254.895 499.858C256.689 501.271 258.874 502 261.081 502C262.443 502 263.813 501.722 265.104 501.154L463.776 413.817C467.201 412.312 469.499 409.02 469.732 405.286L470.813 387.974C473.713 341.548 465.351 294.499 446.63 251.914ZM450.853 386.728L450.151 397.959L262.55 480.431L128.715 375.097C117.103 365.301 110.435 354.474 109.935 344.599C109.611 338.197 111.805 332.235 116.461 326.851C116.797 326.584 117.119 326.293 117.425 325.978C129.396 313.649 159.249 312.797 174.839 324.23L209.286 357.314C211.225 359.176 213.72 360.102 216.212 360.102C218.839 360.102 221.462 359.073 223.426 357.029C227.252 353.046 227.124 346.715 223.141 342.889L189.625 310.698L112.977 135.246C106.26 119.966 112.35 106.425 120.29 98.848C126.243 93.166 135.356 90.719 144.072 92.462C153.942 94.435 161.942 101.355 166.599 111.948L224.659 244.02C226.306 247.767 229.972 249.998 233.819 249.998C235.163 249.998 236.529 249.726 237.838 249.15C242.894 246.927 245.191 241.027 242.968 235.971L210.767 162.722L224.527 156.673C233.163 152.878 240.02 152.235 244.906 154.764C248.364 156.554 251.279 160.102 253.569 165.31L287.809 243.198C289.456 246.945 293.122 249.176 296.969 249.176C298.313 249.176 299.679 248.904 300.988 248.328C306.044 246.105 308.341 240.205 306.118 235.149L275.924 166.464L294.244 158.527C294.283 158.51 294.321 158.494 294.359 158.476C299.984 155.955 306.263 155.791 312.04 158.016C317.849 160.253 322.425 164.618 324.926 170.308L365.613 262.873C367.26 266.62 370.926 268.851 374.773 268.851C376.117 268.851 377.483 268.579 378.792 268.003C383.848 265.781 386.145 259.88 383.922 254.824L364.143 209.832L369.865 207.344C385.332 200.617 403.065 206.631 411.109 221.338C411.892 222.769 412.623 224.254 413.282 225.754L428.321 259.962C445.762 299.638 453.554 343.473 450.853 386.728Z" fill="#4031A6"/>
<path d="M411.561 384.075L401.696 388.402C396.638 390.62 394.337 396.518 396.555 401.576C398.2 405.327 401.868 407.562 405.718 407.562C407.059 407.562 408.423 407.291 409.729 406.717L419.594 402.39C424.652 400.172 426.953 394.274 424.735 389.216C422.518 384.158 416.62 381.856 411.561 384.075Z" fill="#4031A6"/>
<path d="M371.77 401.751L266.417 447.959C261.359 450.177 259.058 456.075 261.276 461.133C262.921 464.884 266.589 467.119 270.439 467.119C271.78 467.119 273.144 466.848 274.45 466.275L379.803 420.066C384.861 417.848 387.162 411.95 384.944 406.892C382.727 401.835 376.83 399.533 371.77 401.751Z" fill="#4031A6"/>
<path d="M112.017 45.197C112.993 49.924 117.156 53.177 121.8 53.177C122.47 53.177 123.151 53.109 123.832 52.969C129.241 51.852 132.72 46.562 131.603 41.153L124.753 7.979C123.637 2.571 118.345 -0.906003 112.938 0.207997C107.529 1.324 104.05 6.614 105.167 12.023L112.017 45.197Z" fill="#4031A6"/>
<path d="M26.0348 46.9129C28.9438 42.2169 27.4938 36.0539 22.7988 33.1459L15.8918 28.8689C11.1958 25.9599 5.0328 27.4089 2.1248 32.1049C-0.784202 36.8009 0.665798 42.9639 5.3608 45.8719L12.2678 50.1489C13.9078 51.1649 15.7268 51.6489 17.5238 51.6489C20.8708 51.6489 24.1428 49.9679 26.0348 46.9129Z" fill="#4031A6"/>
<path d="M45.4539 72.2451L66.7859 86.2761C68.4799 87.3901 70.3859 87.9221 72.2719 87.9221C75.5249 87.9221 78.7149 86.3371 80.6369 83.4161C83.6719 78.8021 82.3909 72.6011 77.7769 69.5661L56.4439 55.5351C51.8289 52.5001 45.6289 53.7811 42.5939 58.3951C39.5589 63.0091 40.8399 69.2101 45.4539 72.2451Z" fill="#4031A6"/>
<path d="M71.622 135.491C70.505 130.083 65.217 126.605 59.806 127.72L26.632 134.57C21.223 135.686 17.744 140.976 18.861 146.385C19.837 151.112 24 154.365 28.644 154.365C29.314 154.365 29.995 154.297 30.677 154.157L63.851 147.307C69.26 146.19 72.739 140.9 71.622 135.491Z" fill="#4031A6"/>
<path d="M96.7747 186.982C92.1597 183.946 85.9587 185.228 82.9247 189.842L64.3107 218.143C61.2757 222.757 62.5567 228.958 67.1707 231.993C68.8647 233.107 70.7707 233.639 72.6567 233.639C75.9097 233.639 79.0997 232.054 81.0207 229.133L99.6347 200.832C102.67 196.218 101.389 190.017 96.7747 186.982Z" fill="#4031A6"/>
<path d="M206.355 105.18C207.331 109.906 211.494 113.159 216.138 113.159C216.808 113.159 217.488 113.091 218.171 112.951L240.287 108.384C245.696 107.267 249.175 101.977 248.058 96.568C246.941 91.159 241.652 87.68 236.242 88.797L214.126 93.364C208.717 94.481 205.238 99.771 206.355 105.18Z" fill="#4031A6"/>
<path d="M278.34 100.315C279.01 100.315 279.691 100.247 280.373 100.107L287.285 98.6801C292.694 97.5631 296.173 92.2731 295.056 86.8641C293.939 81.4561 288.652 77.9771 283.24 79.0931L276.328 80.5201C270.919 81.6371 267.44 86.9271 268.557 92.3361C269.533 97.0621 273.696 100.315 278.34 100.315Z" fill="#4031A6"/>
<path d="M175.907 61.9821C177.601 63.0961 179.507 63.6281 181.393 63.6281C184.646 63.6281 187.837 62.0431 189.757 59.1221L208.371 30.8211C211.406 26.2071 210.125 20.0061 205.511 16.9711C200.896 13.9351 194.695 15.2171 191.661 19.8311L173.047 48.1321C170.012 52.7461 171.293 58.9471 175.907 61.9821Z" fill="#4031A6"/>
</svg>
