<svg width="96" height="95" viewBox="0 0 96 95" fill="none" xmlns="http://www.w3.org/2000/svg">
<path d="M38.5406 82.3691C36.8293 82.5192 35.3774 82.6693 33.9254 82.798C26.3804 83.4199 19.7947 81.7257 14.8165 76.8578C13.2608 75.3352 12.3793 73.3623 11.057 71.6682C9.00866 69.009 6.9085 66.3713 4.65277 63.8194C3.87493 62.9402 2.52668 62.4255 1.48956 61.6749C1.15249 61.4391 1.04878 60.9887 0.81543 60.6242C1.28213 60.474 1.72291 60.2167 2.18961 60.1738C8.15304 59.7235 12.3534 61.9966 15.2832 66.0926C18.9391 71.1964 24.2284 73.9842 31.4104 73.9842C33.4846 73.9842 35.5589 73.4052 37.6072 73.0192C37.9961 72.9334 38.4628 72.4402 38.5147 72.0756C38.8777 69.8454 39.2147 67.6151 40.4593 65.5779C40.926 64.8273 41.4705 64.1196 42.0149 63.3476C39.9148 63.0045 37.8924 62.7472 35.8959 62.3397C26.6915 60.4097 19.0946 56.5926 14.6869 49.3442C12.9756 46.5135 12.0163 43.4684 11.8867 40.2946C11.6792 35.4052 11.757 30.4944 12.9497 25.6693C13.8053 22.281 15.361 19.1287 18.4724 16.684C19.1465 16.1479 19.2761 15.6761 18.9131 14.8612C17.176 10.851 16.9945 6.77652 18.4724 2.68059C18.7835 1.80135 19.0687 0.922122 19.3798 0C26.4841 1.11512 30.7104 5.08239 34.6773 9.47855C38.7739 6.96953 43.6225 6.75508 48.3414 6.49774C53.9418 6.19752 59.5682 6.26185 65.1427 7.01241C68.0466 7.39842 69.8356 7.89165 72.6618 9.28555C75.099 7.20542 77.3807 5.10384 79.8957 3.19526C81.8921 1.67269 84.3812 0.707674 87.0777 0.193002C87.8296 0.0428889 88.2185 0.107223 88.5297 0.793453C90.6298 5.53273 90.941 10.2506 88.6334 14.9898C88.3223 15.6332 88.3482 16.0835 88.9964 16.5982C92.73 19.5361 94.4412 23.3318 95.0117 27.4278C95.5302 31.2235 95.8154 35.0406 95.8154 38.8578C95.8154 44.2833 93.8708 49.2585 89.7483 53.526C86.8444 56.5497 83.0848 58.7156 78.8326 60.3454C74.7101 61.9108 70.406 62.8115 65.9464 63.2833C65.8427 63.3047 65.739 63.3691 65.5575 63.4334C68.617 67.0576 69.1096 71.132 69.0578 75.3567C68.98 81.5113 69.0059 87.6445 69.0578 93.7991C69.0578 94.7641 68.7207 95 67.5799 95C58.3755 94.9571 49.171 94.9571 39.9666 95C38.8258 95 38.4628 94.6998 38.4628 93.7777C38.5147 90.4537 38.4887 87.1298 38.4887 83.8059C38.5406 83.3126 38.5406 82.8837 38.5406 82.3691Z" fill="#696057"/>
</svg>
