<svg width="512" height="512" viewBox="0 0 512 512" fill="none" xmlns="http://www.w3.org/2000/svg">
<path d="M405.333 234.667H192L262.187 164.48C264.186 162.497 265.773 160.138 266.856 157.538C267.939 154.938 268.497 152.15 268.497 149.334C268.497 146.517 267.939 143.729 266.856 141.129C265.773 138.53 264.186 136.17 262.187 134.187C258.19 130.214 252.783 127.983 247.147 127.983C241.511 127.983 236.104 130.214 232.107 134.187L140.587 225.92C132.574 233.885 128.048 244.703 128 256V256C128.104 267.224 132.626 277.954 140.587 285.867L232.107 377.6C234.096 379.575 236.454 381.139 239.048 382.203C241.641 383.266 244.419 383.809 247.222 383.799C250.025 383.789 252.799 383.227 255.385 382.145C257.971 381.063 260.318 379.483 262.293 377.494C264.268 375.505 265.832 373.146 266.896 370.552C267.959 367.959 268.502 365.181 268.492 362.378C268.482 359.575 267.92 356.801 266.838 354.216C265.756 351.63 264.176 349.282 262.187 347.307L192 277.334H405.333C410.991 277.334 416.418 275.086 420.418 271.085C424.419 267.084 426.667 261.658 426.667 256C426.667 250.342 424.419 244.916 420.418 240.915C416.418 236.915 410.991 234.667 405.333 234.667Z" fill="#30257D"/>
</svg>
