<svg width="513" height="513" viewBox="0 0 513 513" fill="none" xmlns="http://www.w3.org/2000/svg">
<g clip-path="url(#clip0)">
<path d="M490.922 406.154H448.256V363.488C448.256 357.83 446.008 352.403 442.007 348.403C438.006 344.402 432.58 342.154 426.922 342.154C421.264 342.154 415.838 344.402 411.837 348.403C407.836 352.403 405.589 357.83 405.589 363.488V406.154H362.922C357.264 406.154 351.838 408.402 347.837 412.403C343.836 416.403 341.589 421.83 341.589 427.488C341.589 433.146 343.836 438.572 347.837 442.573C351.838 446.573 357.264 448.821 362.922 448.821H405.589V491.488C405.589 497.146 407.836 502.572 411.837 506.573C415.838 510.573 421.264 512.821 426.922 512.821C432.58 512.821 438.006 510.573 442.007 506.573C446.008 502.572 448.256 497.146 448.256 491.488V448.821H490.922C496.58 448.821 502.006 446.573 506.007 442.573C510.008 438.572 512.256 433.146 512.256 427.488C512.256 421.83 510.008 416.403 506.007 412.403C502.006 408.402 496.58 406.154 490.922 406.154Z" fill="#30257D"/>
<path d="M448.255 128.821H384.255C384.255 94.8736 370.77 62.3163 346.765 38.3116C322.76 14.307 290.203 0.821289 256.255 0.821289C222.308 0.821289 189.75 14.307 165.746 38.3116C141.741 62.3163 128.255 94.8736 128.255 128.821H64.2554C47.2815 128.821 31.0029 135.564 19.0005 147.566C6.99821 159.569 0.255371 175.847 0.255371 192.821L0.255371 406.155C0.289245 434.434 11.5382 461.545 31.5347 481.542C51.5313 501.539 78.6427 512.787 106.922 512.821H298.922C304.58 512.821 310.006 510.574 314.007 506.573C318.008 502.572 320.255 497.146 320.255 491.488C320.255 485.83 318.008 480.404 314.007 476.403C310.006 472.402 304.58 470.155 298.922 470.155H106.922C89.9482 470.155 73.6695 463.412 61.6672 451.409C49.6649 439.407 42.922 423.128 42.922 406.155V192.821C42.922 187.163 45.1697 181.737 49.1704 177.736C53.1712 173.736 58.5974 171.488 64.2554 171.488H128.255V214.155C128.255 219.813 130.503 225.239 134.504 229.24C138.505 233.24 143.931 235.488 149.589 235.488C155.247 235.488 160.673 233.24 164.674 229.24C168.674 225.239 170.922 219.813 170.922 214.155V171.488H341.589V214.155C341.589 219.813 343.836 225.239 347.837 229.24C351.838 233.24 357.264 235.488 362.922 235.488C368.58 235.488 374.006 233.24 378.007 229.24C382.008 225.239 384.255 219.813 384.255 214.155V171.488H448.255C453.913 171.488 459.34 173.736 463.34 177.736C467.341 181.737 469.589 187.163 469.589 192.821V299.488C469.589 305.146 471.836 310.572 475.837 314.573C479.838 318.574 485.264 320.821 490.922 320.821C496.58 320.821 502.006 318.574 506.007 314.573C510.008 310.572 512.255 305.146 512.255 299.488V192.821C512.255 175.847 505.513 159.569 493.51 147.566C481.508 135.564 465.229 128.821 448.255 128.821ZM170.922 128.821C170.922 106.189 179.912 84.4846 195.916 68.4815C211.919 52.4784 233.624 43.488 256.255 43.488C278.887 43.488 300.592 52.4784 316.595 68.4815C332.598 84.4846 341.589 106.189 341.589 128.821H170.922Z" fill="#30257D"/>
</g>
<defs>
<clipPath id="clip0">
<rect width="512" height="512" fill="white" transform="translate(0.255371 0.821289)"/>
</clipPath>
</defs>
</svg>
