<svg width="31" height="30" viewBox="0 0 31 30" fill="none" xmlns="http://www.w3.org/2000/svg">
<g clip-path="url(#clip0)">
<path d="M15.0195 7.29749C10.7658 7.29749 7.32202 10.745 7.32202 14.995C7.32202 19.2487 10.7695 22.6925 15.0195 22.6925C19.2733 22.6925 22.717 19.245 22.717 14.995C22.717 10.7412 19.2695 7.29749 15.0195 7.29749V7.29749ZM15.0195 19.9912C12.2583 19.9912 10.0233 17.755 10.0233 14.995C10.0233 12.235 12.2595 9.99874 15.0195 9.99874C17.7795 9.99874 20.0158 12.235 20.0158 14.995C20.017 17.755 17.7808 19.9912 15.0195 19.9912V19.9912Z" fill="#DFD3C3"/>
<path d="M21.1994 0.0949658C18.4394 -0.0337843 11.6032 -0.0275343 8.84069 0.0949658C6.41319 0.208716 4.27194 0.794966 2.54569 2.52122C-0.339306 5.40622 0.0294442 9.29372 0.0294442 14.995C0.0294442 20.83 -0.295556 24.6275 2.54569 27.4687C5.44194 30.3637 9.38569 29.985 15.0194 29.985C20.7994 29.985 22.7944 29.9887 24.8382 29.1975C27.6169 28.1187 29.7144 25.635 29.9194 21.1737C30.0494 18.4125 30.0419 11.5775 29.9194 8.81497C29.6719 3.54872 26.8457 0.354966 21.1994 0.0949658V0.0949658ZM25.5682 25.56C23.6769 27.4512 21.0532 27.2825 14.9832 27.2825C8.73319 27.2825 6.22694 27.375 4.39819 25.5412C2.29194 23.445 2.67319 20.0787 2.67319 14.975C2.67319 8.06872 1.96444 3.09497 8.89569 2.73997C10.4882 2.68372 10.9569 2.66497 14.9657 2.66497L15.0219 2.70247C21.6832 2.70247 26.9094 2.00497 27.2232 8.93497C27.2944 10.5162 27.3107 10.9912 27.3107 14.9937C27.3094 21.1712 27.4269 23.6925 25.5682 25.56V25.56Z" fill="#DFD3C3"/>
<path d="M23.0219 8.79245C24.0153 8.79245 24.8206 7.98712 24.8206 6.9937C24.8206 6.00027 24.0153 5.19495 23.0219 5.19495C22.0285 5.19495 21.2231 6.00027 21.2231 6.9937C21.2231 7.98712 22.0285 8.79245 23.0219 8.79245Z" fill="#DFD3C3"/>
</g>
<defs>
<clipPath id="clip0">
<rect width="30" height="30" fill="white" transform="translate(0.0144043)"/>
</clipPath>
</defs>
</svg>
