<svg width="513" height="513" viewBox="0 0 513 513" fill="none" xmlns="http://www.w3.org/2000/svg">
<g clip-path="url(#clip0)">
<path d="M448.836 128.984H384.836C384.836 95.0362 371.35 62.4789 347.346 38.4742C323.341 14.4696 290.784 0.983887 256.836 0.983887C222.888 0.983887 190.331 14.4696 166.326 38.4742C142.322 62.4789 128.836 95.0362 128.836 128.984H64.8359C47.8621 128.984 31.5834 135.727 19.5811 147.729C7.57877 159.731 0.835938 176.01 0.835938 192.984L0.835938 406.317C0.869812 434.597 12.1188 461.708 32.1153 481.705C52.1118 501.701 79.2232 512.95 107.503 512.984H406.169C434.449 512.95 461.56 501.701 481.557 481.705C501.553 461.708 512.802 434.597 512.836 406.317V192.984C512.836 176.01 506.093 159.731 494.091 147.729C482.088 135.727 465.81 128.984 448.836 128.984ZM256.836 43.6506C279.468 43.6506 301.173 52.641 317.176 68.6441C333.179 84.6472 342.169 106.352 342.169 128.984H171.503C171.503 106.352 180.493 84.6472 196.496 68.6441C212.499 52.641 234.204 43.6506 256.836 43.6506V43.6506ZM470.169 406.317C470.169 423.291 463.426 439.57 451.424 451.572C439.422 463.574 423.143 470.317 406.169 470.317H107.503C90.5288 470.317 74.2501 463.574 62.2478 451.572C50.2454 439.57 43.5026 423.291 43.5026 406.317V192.984C43.5026 187.326 45.7502 181.9 49.751 177.899C53.7518 173.898 59.178 171.651 64.8359 171.651H128.836V214.317C128.836 219.975 131.084 225.401 135.084 229.402C139.085 233.403 144.511 235.651 150.169 235.651C155.827 235.651 161.253 233.403 165.254 229.402C169.255 225.401 171.503 219.975 171.503 214.317V171.651H342.169V214.317C342.169 219.975 344.417 225.401 348.418 229.402C352.418 233.403 357.845 235.651 363.503 235.651C369.161 235.651 374.587 233.403 378.588 229.402C382.588 225.401 384.836 219.975 384.836 214.317V171.651H448.836C454.494 171.651 459.92 173.898 463.921 177.899C467.922 181.9 470.169 187.326 470.169 192.984V406.317Z" fill="#30257D"/>
</g>
<defs>
<clipPath id="clip0">
<rect width="512" height="512" fill="white" transform="translate(0.835938 0.983887)"/>
</clipPath>
</defs>
</svg>
