<svg width="1642" height="336" viewBox="0 0 1642 336" fill="none" xmlns="http://www.w3.org/2000/svg">
<path d="M46.3022 265.5C41.9022 265.5 38.2022 264 35.2021 261C32.2021 258 30.7021 254.3 30.7021 249.9V46.8C30.7021 42.2 32.2021 38.5 35.2021 35.7C38.2022 32.7 41.9022 31.2 46.3022 31.2H205.902C210.502 31.2 214.202 32.7 217.002 35.7C220.002 38.5 221.502 42.2 221.502 46.8V249.9C221.502 254.3 220.002 258 217.002 261C214.202 264 210.502 265.5 205.902 265.5C201.502 265.5 197.802 264 194.802 261C191.802 258 190.302 254.3 190.302 249.9V58.8H61.9022V249.9C61.9022 254.3 60.4022 258 57.4022 261C54.6022 264 50.9022 265.5 46.3022 265.5ZM297.083 265.5C292.683 265.5 288.983 264 285.983 261C282.983 258 281.483 254.3 281.483 249.9V46.8C281.483 42.2 282.983 38.5 285.983 35.7C288.983 32.7 292.683 31.2 297.083 31.2H357.083C372.083 31.2 385.383 34.5 396.983 41.1C408.583 47.7 417.583 56.9 423.983 68.7C430.583 80.3 433.883 93.7 433.883 108.9C433.883 123.5 430.583 136.5 423.983 147.9C417.583 159.3 408.583 168.2 396.983 174.6C385.383 181 372.083 184.2 357.083 184.2H312.683V249.9C312.683 254.3 311.183 258 308.183 261C305.383 264 301.683 265.5 297.083 265.5ZM312.683 155.4H357.083C370.683 155.4 381.883 151.1 390.683 142.5C399.483 133.7 403.883 122.5 403.883 108.9C403.883 99.3 401.883 90.9 397.883 83.7C393.883 76.3 388.383 70.5 381.383 66.3C374.383 62.1 366.283 60 357.083 60H312.683V155.4ZM576.697 268.5C559.097 268.5 542.997 265.6 528.397 259.8C513.797 253.8 501.197 245.5 490.597 234.9C480.197 224.1 472.097 211.4 466.297 196.8C460.497 182 457.597 165.8 457.597 148.2C457.597 130.6 460.497 114.5 466.297 99.9C472.097 85.3 480.197 72.7 490.597 62.1C501.197 51.3 513.797 43 528.397 37.2C542.997 31.2 559.097 28.2 576.697 28.2C594.297 28.2 610.297 31.2 624.697 37.2C639.297 43 651.897 51.3 662.497 62.1C673.097 72.7 681.297 85.3 687.097 99.9C692.897 114.5 695.797 130.6 695.797 148.2C695.797 165.8 692.897 182 687.097 196.8C681.297 211.4 673.097 224.1 662.497 234.9C651.897 245.5 639.297 253.8 624.697 259.8C610.297 265.6 594.297 268.5 576.697 268.5ZM576.697 240.3C594.097 240.3 609.497 236.3 622.897 228.3C636.297 220.1 646.797 209.1 654.397 195.3C661.997 181.3 665.797 165.6 665.797 148.2C665.797 130.8 661.997 115.2 654.397 101.4C646.797 87.4 636.297 76.4 622.897 68.4C609.497 60.4 594.097 56.4 576.697 56.4C559.297 56.4 543.897 60.4 530.497 68.4C517.097 76.4 506.597 87.4 498.997 101.4C491.397 115.2 487.597 130.8 487.597 148.2C487.597 165.6 491.397 181.3 498.997 195.3C506.597 209.1 517.097 220.1 530.497 228.3C543.897 236.3 559.297 240.3 576.697 240.3ZM760.267 265.5C755.867 265.5 752.167 264 749.167 261C746.167 258 744.667 254.3 744.667 249.9V46.8C744.667 42.2 746.167 38.5 749.167 35.7C752.167 32.7 755.867 31.2 760.267 31.2H895.867C900.467 31.2 904.167 32.6 906.967 35.4C909.767 38 911.167 41.5 911.167 45.9C911.167 50.1 909.767 53.5 906.967 56.1C904.167 58.7 900.467 60 895.867 60H775.867V132.9H861.967C866.567 132.9 870.267 134.3 873.067 137.1C875.867 139.7 877.267 143.1 877.267 147.3C877.267 151.5 875.867 155 873.067 157.8C870.267 160.4 866.567 161.7 861.967 161.7H775.867V236.7H895.867C900.467 236.7 904.167 238 906.967 240.6C909.767 243.2 911.167 246.6 911.167 250.8C911.167 255.2 909.767 258.8 906.967 261.6C904.167 264.2 900.467 265.5 895.867 265.5H760.267ZM970.326 265.5C965.926 265.5 962.226 264 959.226 261C956.226 258 954.726 254.3 954.726 249.9V46.8C954.726 42.2 956.226 38.5 959.226 35.7C962.226 32.7 965.926 31.2 970.326 31.2C974.926 31.2 978.626 32.7 981.426 35.7C984.426 38.5 985.926 42.2 985.926 46.8V132.9H1016.83L1097.53 36.3C1100.33 32.9 1103.93 31.2 1108.33 31.2C1112.93 31 1116.63 32.5 1119.43 35.7C1122.23 38.9 1123.53 42.3 1123.33 45.9C1123.33 49.3 1121.93 52.6 1119.13 55.8L1043.23 144L1126.93 241.2C1129.73 244.4 1131.23 247.8 1131.43 251.4C1131.83 254.8 1130.33 258.2 1126.93 261.6C1124.13 264.4 1120.33 265.7 1115.53 265.5C1110.73 265.5 1106.93 263.9 1104.13 260.7L1018.03 160.5H985.926V249.9C985.926 254.3 984.426 258 981.426 261C978.626 264 974.926 265.5 970.326 265.5ZM1240.53 265.5C1236.13 265.5 1232.43 264 1229.43 261C1226.43 258 1224.93 254.3 1224.93 249.9V60H1160.13C1155.93 60 1152.43 58.7 1149.63 56.1C1147.03 53.3 1145.73 49.8 1145.73 45.6C1145.73 41.4 1147.03 38 1149.63 35.4C1152.43 32.6 1155.93 31.2 1160.13 31.2H1320.63C1324.83 31.2 1328.23 32.6 1330.83 35.4C1333.63 38 1335.03 41.4 1335.03 45.6C1335.03 49.8 1333.63 53.3 1330.83 56.1C1328.23 58.7 1324.83 60 1320.63 60H1256.13V249.9C1256.13 254.3 1254.63 258 1251.63 261C1248.63 264 1244.93 265.5 1240.53 265.5Z" fill="#30257D"/>
<path d="M35.2021 261L34.1415 262.061L34.1415 262.061L35.2021 261ZM35.2021 35.7L36.2256 36.7966L36.2445 36.7789L36.2628 36.7607L35.2021 35.7ZM217.002 35.7L215.906 36.7235L215.941 36.7613L215.979 36.7966L217.002 35.7ZM217.002 261L215.941 259.939L215.923 259.958L215.906 259.977L217.002 261ZM194.802 261L193.741 262.061L193.741 262.061L194.802 261ZM190.302 58.8H191.802V57.3H190.302V58.8ZM61.9022 58.8V57.3H60.4022V58.8H61.9022ZM57.4022 261L56.3415 259.939L56.3232 259.958L56.3056 259.977L57.4022 261ZM46.3022 264C42.2835 264 38.9701 262.647 36.2628 259.939L34.1415 262.061C37.4342 265.353 41.5208 267 46.3022 267V264ZM36.2628 259.939C33.5556 257.232 32.2021 253.919 32.2021 249.9H29.2021C29.2021 254.681 30.8487 258.768 34.1415 262.061L36.2628 259.939ZM32.2021 249.9V46.8H29.2021V249.9H32.2021ZM32.2021 46.8C32.2021 42.5602 33.5679 39.2771 36.2256 36.7966L34.1787 34.6034C30.8364 37.7229 29.2021 41.8398 29.2021 46.8H32.2021ZM36.2628 36.7607C38.9701 34.0534 42.2835 32.7 46.3022 32.7V29.7C41.5208 29.7 37.4342 31.3466 34.1415 34.6393L36.2628 36.7607ZM46.3022 32.7H205.902V29.7H46.3022V32.7ZM205.902 32.7C210.142 32.7 213.425 34.0658 215.906 36.7235L218.099 34.6765C214.979 31.3342 210.862 29.7 205.902 29.7V32.7ZM215.979 36.7966C218.636 39.2771 220.002 42.5602 220.002 46.8H223.002C223.002 41.8398 221.368 37.7229 218.026 34.6034L215.979 36.7966ZM220.002 46.8V249.9H223.002V46.8H220.002ZM220.002 249.9C220.002 253.919 218.649 257.232 215.941 259.939L218.063 262.061C221.356 258.768 223.002 254.681 223.002 249.9H220.002ZM215.906 259.977C213.425 262.634 210.142 264 205.902 264V267C210.862 267 214.979 265.366 218.099 262.023L215.906 259.977ZM205.902 264C201.884 264 198.57 262.647 195.863 259.939L193.741 262.061C197.034 265.353 201.121 267 205.902 267V264ZM195.863 259.939C193.156 257.232 191.802 253.919 191.802 249.9H188.802C188.802 254.681 190.449 258.768 193.741 262.061L195.863 259.939ZM191.802 249.9V58.8H188.802V249.9H191.802ZM190.302 57.3H61.9022V60.3H190.302V57.3ZM60.4022 58.8V249.9H63.4022V58.8H60.4022ZM60.4022 249.9C60.4022 253.919 59.0487 257.232 56.3415 259.939L58.4628 262.061C61.7556 258.768 63.4022 254.681 63.4022 249.9H60.4022ZM56.3056 259.977C53.8251 262.634 50.5419 264 46.3022 264V267C51.2624 267 55.3792 265.366 58.4987 262.023L56.3056 259.977ZM285.983 261L284.923 262.061L284.923 262.061L285.983 261ZM285.983 35.7L287.007 36.7966L287.026 36.7789L287.044 36.7607L285.983 35.7ZM396.983 41.1L396.242 42.4037L396.242 42.4037L396.983 41.1ZM423.983 68.7L422.665 69.4151L422.672 69.4285L422.68 69.4418L423.983 68.7ZM423.983 147.9L422.685 147.148L422.68 147.157L422.675 147.166L423.983 147.9ZM396.983 174.6L397.708 175.913L397.708 175.913L396.983 174.6ZM312.683 184.2V182.7H311.183V184.2H312.683ZM308.183 261L307.123 259.939L307.104 259.958L307.087 259.977L308.183 261ZM312.683 155.4H311.183V156.9H312.683V155.4ZM390.683 142.5L391.732 143.573L391.738 143.567L391.744 143.561L390.683 142.5ZM397.883 83.7L396.564 84.4133L396.568 84.4209L396.572 84.4285L397.883 83.7ZM312.683 60V58.5H311.183V60H312.683ZM297.083 264C293.065 264 289.751 262.647 287.044 259.939L284.923 262.061C288.215 265.353 292.302 267 297.083 267V264ZM287.044 259.939C284.337 257.232 282.983 253.919 282.983 249.9H279.983C279.983 254.681 281.63 258.768 284.923 262.061L287.044 259.939ZM282.983 249.9V46.8H279.983V249.9H282.983ZM282.983 46.8C282.983 42.5602 284.349 39.2771 287.007 36.7966L284.96 34.6034C281.618 37.7229 279.983 41.8398 279.983 46.8H282.983ZM287.044 36.7607C289.751 34.0534 293.065 32.7 297.083 32.7V29.7C292.302 29.7 288.215 31.3466 284.923 34.6393L287.044 36.7607ZM297.083 32.7H357.083V29.7H297.083V32.7ZM357.083 32.7C371.856 32.7 384.895 35.9477 396.242 42.4037L397.725 39.7962C385.872 33.0523 372.311 29.7 357.083 29.7V32.7ZM396.242 42.4037C407.597 48.8644 416.398 57.8598 422.665 69.4151L425.302 67.9849C418.769 55.9402 409.57 46.5356 397.725 39.7962L396.242 42.4037ZM422.68 69.4418C429.134 80.7858 432.383 93.9234 432.383 108.9H435.383C435.383 93.4766 432.033 79.8142 425.287 67.9582L422.68 69.4418ZM432.383 108.9C432.383 123.265 429.139 136.001 422.685 147.148L425.282 148.652C432.028 136.999 435.383 123.735 435.383 108.9H432.383ZM422.675 147.166C416.414 158.319 407.618 167.02 396.259 173.287L397.708 175.913C409.549 169.38 418.753 160.281 425.291 148.634L422.675 147.166ZM396.259 173.287C384.909 179.549 371.864 182.7 357.083 182.7V185.7C372.303 185.7 385.858 182.451 397.708 175.913L396.259 173.287ZM357.083 182.7H312.683V185.7H357.083V182.7ZM311.183 184.2V249.9H314.183V184.2H311.183ZM311.183 249.9C311.183 253.919 309.83 257.232 307.123 259.939L309.244 262.061C312.537 258.768 314.183 254.681 314.183 249.9H311.183ZM307.087 259.977C304.606 262.634 301.323 264 297.083 264V267C302.044 267 306.16 265.366 309.28 262.023L307.087 259.977ZM312.683 156.9H357.083V153.9H312.683V156.9ZM357.083 156.9C371.03 156.9 382.621 152.477 391.732 143.573L389.635 141.427C381.146 149.723 370.337 153.9 357.083 153.9V156.9ZM391.744 143.561C400.853 134.452 405.383 122.857 405.383 108.9H402.383C402.383 122.143 398.114 132.948 389.623 141.439L391.744 143.561ZM405.383 108.9C405.383 99.0876 403.338 90.4288 399.195 82.9715L396.572 84.4285C400.429 91.3712 402.383 99.5124 402.383 108.9H405.383ZM399.203 82.9867C395.079 75.3576 389.393 69.3565 382.155 65.0138L380.612 67.5862C387.374 71.6435 392.688 77.2424 396.564 84.4133L399.203 82.9867ZM382.155 65.0138C374.893 60.6567 366.52 58.5 357.083 58.5V61.5C366.047 61.5 373.873 63.5432 380.612 67.5862L382.155 65.0138ZM357.083 58.5H312.683V61.5H357.083V58.5ZM311.183 60V155.4H314.183V60H311.183ZM528.397 259.8L527.827 261.187L527.835 261.191L527.844 261.194L528.397 259.8ZM490.597 234.9L489.517 235.94L489.527 235.951L489.537 235.961L490.597 234.9ZM466.297 196.8L464.901 197.347L464.903 197.354L466.297 196.8ZM466.297 99.9L464.903 99.3462L464.903 99.3462L466.297 99.9ZM490.597 62.1L489.527 61.0493L489.527 61.0495L490.597 62.1ZM528.397 37.2L528.951 38.594L528.959 38.5908L528.968 38.5874L528.397 37.2ZM624.697 37.2L624.121 38.5846L624.132 38.5894L624.144 38.594L624.697 37.2ZM662.497 62.1L661.427 63.1507L661.437 63.1606L662.497 62.1ZM687.097 99.9L688.492 99.3462L688.492 99.3462L687.097 99.9ZM687.097 196.8L688.492 197.354L688.494 197.347L687.097 196.8ZM662.497 234.9L663.558 235.961L663.568 235.951L662.497 234.9ZM624.697 259.8L625.258 261.191L625.268 261.187L624.697 259.8ZM622.897 228.3L623.666 229.588L623.673 229.584L623.68 229.579L622.897 228.3ZM654.397 195.3L655.711 196.024L655.716 196.016L654.397 195.3ZM654.397 101.4L653.079 102.116L653.084 102.124L654.397 101.4ZM622.897 68.4L622.129 69.6879L622.129 69.6879L622.897 68.4ZM530.497 68.4L531.266 69.6879L531.266 69.6879L530.497 68.4ZM498.997 101.4L500.311 102.124L500.316 102.116L498.997 101.4ZM498.997 195.3L497.679 196.016L497.684 196.024L498.997 195.3ZM530.497 228.3L529.715 229.579L529.722 229.584L529.729 229.588L530.497 228.3ZM576.697 267C559.264 267 543.355 264.128 528.951 258.406L527.844 261.194C542.64 267.072 558.931 270 576.697 270V267ZM528.968 258.413C514.541 252.484 502.11 244.292 491.658 233.839L489.537 235.961C500.284 246.708 513.054 255.116 527.827 261.187L528.968 258.413ZM491.678 233.86C481.419 223.207 473.423 210.674 467.691 196.246L464.903 197.354C470.772 212.126 478.975 224.993 489.517 235.94L491.678 233.86ZM467.694 196.253C461.969 181.645 459.097 165.633 459.097 148.2H456.097C456.097 165.967 459.026 182.355 464.901 197.347L467.694 196.253ZM459.097 148.2C459.097 130.767 461.969 114.858 467.691 100.454L464.903 99.3462C459.025 114.142 456.097 130.433 456.097 148.2H459.097ZM467.691 100.454C473.422 86.0283 481.416 73.5999 491.668 63.1505L489.527 61.0495C478.979 71.8001 470.773 84.5717 464.903 99.3462L467.691 100.454ZM491.668 63.1507C502.116 52.5056 514.538 44.3198 528.951 38.594L527.844 35.806C513.057 41.6801 500.279 50.0944 489.527 61.0493L491.668 63.1507ZM528.968 38.5874C543.367 32.6698 559.271 29.7 576.697 29.7V26.7C558.924 26.7 542.628 29.7301 527.827 35.8126L528.968 38.5874ZM576.697 29.7C594.125 29.7 609.925 32.6699 624.121 38.5846L625.274 35.8154C610.67 29.73 594.47 26.7 576.697 26.7V29.7ZM624.144 38.594C638.557 44.3198 650.979 52.5056 661.427 63.1507L663.568 61.0493C652.816 50.0944 640.038 41.6801 625.251 35.806L624.144 38.594ZM661.437 63.1606C671.885 73.6093 679.975 86.0344 685.703 100.454L688.492 99.3462C682.62 84.5656 674.31 71.7907 663.558 61.0393L661.437 63.1606ZM685.703 100.454C691.426 114.858 694.297 130.767 694.297 148.2H697.297C697.297 130.433 694.369 114.142 688.492 99.3462L685.703 100.454ZM694.297 148.2C694.297 165.633 691.426 181.645 685.701 196.253L688.494 197.347C694.369 182.355 697.297 165.967 697.297 148.2H694.297ZM685.703 196.246C679.974 210.668 671.882 223.197 661.427 233.849L663.568 235.951C674.313 225.003 682.621 212.132 688.492 197.354L685.703 196.246ZM661.437 233.839C650.984 244.292 638.554 252.484 624.127 258.413L625.268 261.187C640.041 255.116 652.81 246.708 663.558 235.961L661.437 233.839ZM624.137 258.409C609.937 264.128 594.131 267 576.697 267V270C594.464 270 610.658 267.072 625.258 261.191L624.137 258.409ZM576.697 241.8C594.336 241.8 610.008 237.742 623.666 229.588L622.129 227.012C608.987 234.858 593.859 238.8 576.697 238.8V241.8ZM623.68 229.579C637.303 221.243 647.986 210.051 655.711 196.024L653.084 194.576C645.609 208.149 635.292 218.957 622.115 227.021L623.68 229.579ZM655.716 196.016C663.446 181.776 667.297 165.826 667.297 148.2H664.297C664.297 165.374 660.549 180.824 653.079 194.584L655.716 196.016ZM667.297 148.2C667.297 130.574 663.446 114.721 655.711 100.676L653.084 102.124C660.549 115.679 664.297 131.026 664.297 148.2H667.297ZM655.716 100.684C647.99 86.4529 637.303 75.253 623.666 67.1121L622.129 69.6879C635.292 77.5469 645.605 88.3471 653.079 102.116L655.716 100.684ZM623.666 67.1121C610.008 58.9578 594.336 54.9 576.697 54.9V57.9C593.859 57.9 608.987 61.8422 622.129 69.6879L623.666 67.1121ZM576.697 54.9C559.059 54.9 543.387 58.9578 529.729 67.1121L531.266 69.6879C544.408 61.8422 559.536 57.9 576.697 57.9V54.9ZM529.729 67.1121C516.092 75.253 505.405 86.4529 497.679 100.684L500.316 102.116C507.79 88.3471 518.103 77.5469 531.266 69.6879L529.729 67.1121ZM497.684 100.676C489.949 114.721 486.097 130.574 486.097 148.2H489.097C489.097 131.026 492.846 115.679 500.311 102.124L497.684 100.676ZM486.097 148.2C486.097 165.826 489.949 181.776 497.679 196.016L500.316 194.584C492.846 180.824 489.097 165.374 489.097 148.2H486.097ZM497.684 196.024C505.409 210.051 516.092 221.243 529.715 229.579L531.28 227.021C518.103 218.957 507.786 208.149 500.311 194.576L497.684 196.024ZM529.729 229.588C543.387 237.742 559.059 241.8 576.697 241.8V238.8C559.536 238.8 544.408 234.858 531.266 227.012L529.729 229.588ZM749.167 261L748.106 262.061L748.106 262.061L749.167 261ZM749.167 35.7L750.19 36.7966L750.209 36.7789L750.228 36.7607L749.167 35.7ZM906.967 35.4L905.906 36.4607L905.926 36.4803L905.946 36.4992L906.967 35.4ZM906.967 56.1L907.988 57.1992L907.988 57.1992L906.967 56.1ZM775.867 60V58.5H774.367V60H775.867ZM775.867 132.9H774.367V134.4H775.867V132.9ZM873.067 137.1L872.006 138.161L872.026 138.18L872.046 138.199L873.067 137.1ZM873.067 157.8L874.088 158.899L874.108 158.88L874.128 158.861L873.067 157.8ZM775.867 161.7V160.2H774.367V161.7H775.867ZM775.867 236.7H774.367V238.2H775.867V236.7ZM906.967 240.6L907.988 239.501L907.988 239.501L906.967 240.6ZM906.967 261.6L907.988 262.699L908.008 262.68L908.028 262.661L906.967 261.6ZM760.267 264C756.248 264 752.935 262.647 750.228 259.939L748.106 262.061C751.399 265.353 755.486 267 760.267 267V264ZM750.228 259.939C747.52 257.232 746.167 253.919 746.167 249.9H743.167C743.167 254.681 744.814 258.768 748.106 262.061L750.228 259.939ZM746.167 249.9V46.8H743.167V249.9H746.167ZM746.167 46.8C746.167 42.5602 747.533 39.2771 750.19 36.7966L748.144 34.6034C744.801 37.7229 743.167 41.8398 743.167 46.8H746.167ZM750.228 36.7607C752.935 34.0534 756.248 32.7 760.267 32.7V29.7C755.486 29.7 751.399 31.3466 748.106 34.6393L750.228 36.7607ZM760.267 32.7H895.867V29.7H760.267V32.7ZM895.867 32.7C900.139 32.7 903.433 33.9876 905.906 36.4607L908.028 34.3393C904.901 31.2124 900.795 29.7 895.867 29.7V32.7ZM905.946 36.4992C908.393 38.7714 909.667 41.8478 909.667 45.9H912.667C912.667 41.1522 911.141 37.2286 907.988 34.3008L905.946 36.4992ZM909.667 45.9C909.667 49.7289 908.409 52.7145 905.946 55.0008L907.988 57.1992C911.125 54.2855 912.667 50.4711 912.667 45.9H909.667ZM905.946 55.0008C903.478 57.2925 900.17 58.5 895.867 58.5V61.5C900.764 61.5 904.856 60.1074 907.988 57.1992L905.946 55.0008ZM895.867 58.5H775.867V61.5H895.867V58.5ZM774.367 60V132.9H777.367V60H774.367ZM775.867 134.4H861.967V131.4H775.867V134.4ZM861.967 134.4C866.239 134.4 869.533 135.688 872.006 138.161L874.128 136.039C871.001 132.912 866.895 131.4 861.967 131.4V134.4ZM872.046 138.199C874.509 140.486 875.767 143.471 875.767 147.3H878.767C878.767 142.729 877.225 138.914 874.088 136.001L872.046 138.199ZM875.767 147.3C875.767 151.129 874.507 154.239 872.006 156.739L874.128 158.861C877.227 155.761 878.767 151.871 878.767 147.3H875.767ZM872.046 156.701C869.578 158.993 866.27 160.2 861.967 160.2V163.2C866.864 163.2 870.956 161.807 874.088 158.899L872.046 156.701ZM861.967 160.2H775.867V163.2H861.967V160.2ZM774.367 161.7V236.7H777.367V161.7H774.367ZM775.867 238.2H895.867V235.2H775.867V238.2ZM895.867 238.2C900.17 238.2 903.478 239.407 905.946 241.699L907.988 239.501C904.856 236.593 900.764 235.2 895.867 235.2V238.2ZM905.946 241.699C908.409 243.986 909.667 246.971 909.667 250.8H912.667C912.667 246.229 911.125 242.414 907.988 239.501L905.946 241.699ZM909.667 250.8C909.667 254.851 908.393 258.053 905.906 260.539L908.028 262.661C911.141 259.547 912.667 255.549 912.667 250.8H909.667ZM905.946 260.501C903.478 262.793 900.17 264 895.867 264V267C900.764 267 904.856 265.607 907.988 262.699L905.946 260.501ZM895.867 264H760.267V267H895.867V264ZM959.226 261L958.165 262.061L958.165 262.061L959.226 261ZM959.226 35.7L960.249 36.7966L960.268 36.7789L960.286 36.7607L959.226 35.7ZM981.426 35.7L980.329 36.7235L980.364 36.7613L980.402 36.7966L981.426 35.7ZM985.926 132.9H984.426V134.4H985.926V132.9ZM1016.83 132.9V134.4H1017.53L1017.98 133.862L1016.83 132.9ZM1097.53 36.3L1098.68 37.2617L1098.68 37.2535L1097.53 36.3ZM1108.33 31.2V32.7H1108.36L1108.39 32.6986L1108.33 31.2ZM1119.43 35.7L1118.3 36.6877L1118.3 36.6877L1119.43 35.7ZM1123.33 45.9L1121.83 45.8168L1121.83 45.8584V45.9H1123.33ZM1119.13 55.8L1118 54.8122L1117.99 54.8216L1119.13 55.8ZM1043.23 144L1042.09 143.022L1041.25 144L1042.09 144.979L1043.23 144ZM1126.93 241.2L1125.79 242.179L1125.8 242.188L1126.93 241.2ZM1131.43 251.4L1129.93 251.483L1129.93 251.529L1129.94 251.575L1131.43 251.4ZM1126.93 261.6L1125.86 260.539L1125.86 260.539L1126.93 261.6ZM1115.53 265.5L1115.59 264.001L1115.56 264H1115.53V265.5ZM1104.13 260.7L1102.99 261.678L1103 261.688L1104.13 260.7ZM1018.03 160.5L1019.16 159.522L1018.71 159H1018.03V160.5ZM985.926 160.5V159H984.426V160.5H985.926ZM981.426 261L980.365 259.939L980.347 259.958L980.329 259.977L981.426 261ZM970.326 264C966.307 264 962.994 262.647 960.286 259.939L958.165 262.061C961.458 265.353 965.544 267 970.326 267V264ZM960.286 259.939C957.579 257.232 956.226 253.919 956.226 249.9H953.226C953.226 254.681 954.872 258.768 958.165 262.061L960.286 259.939ZM956.226 249.9V46.8H953.226V249.9H956.226ZM956.226 46.8C956.226 42.5602 957.591 39.2771 960.249 36.7966L958.202 34.6034C954.86 37.7229 953.226 41.8398 953.226 46.8H956.226ZM960.286 36.7607C962.994 34.0534 966.307 32.7 970.326 32.7V29.7C965.544 29.7 961.458 31.3466 958.165 34.6393L960.286 36.7607ZM970.326 32.7C974.565 32.7 977.849 34.0658 980.329 36.7235L982.522 34.6765C979.403 31.3342 975.286 29.7 970.326 29.7V32.7ZM980.402 36.7966C983.06 39.2771 984.426 42.5602 984.426 46.8H987.426C987.426 41.8398 985.791 37.7229 982.449 34.6034L980.402 36.7966ZM984.426 46.8V132.9H987.426V46.8H984.426ZM985.926 134.4H1016.83V131.4H985.926V134.4ZM1017.98 133.862L1098.68 37.2617L1096.37 35.3383L1015.67 131.938L1017.98 133.862ZM1098.68 37.2535C1101.2 34.1991 1104.37 32.7 1108.33 32.7V29.7C1103.48 29.7 1099.45 31.6008 1096.37 35.3464L1098.68 37.2535ZM1108.39 32.6986C1112.58 32.5165 1115.82 33.8617 1118.3 36.6877L1120.55 34.7122C1117.43 31.1383 1113.27 29.4835 1108.26 29.7014L1108.39 32.6986ZM1118.3 36.6877C1120.89 39.6494 1122 42.6776 1121.83 45.8168L1124.82 45.9832C1125.05 41.9224 1123.56 38.1506 1120.55 34.7122L1118.3 36.6877ZM1121.83 45.9C1121.83 48.8523 1120.62 51.8147 1118 54.8122L1120.25 56.7877C1123.23 53.3853 1124.83 49.7477 1124.83 45.9H1121.83ZM1117.99 54.8216L1042.09 143.022L1044.36 144.978L1120.26 56.7784L1117.99 54.8216ZM1042.09 144.979L1125.79 242.179L1128.06 240.221L1044.36 143.021L1042.09 144.979ZM1125.8 242.188C1128.42 245.183 1129.75 248.275 1129.93 251.483L1132.92 251.317C1132.7 247.325 1131.03 243.617 1128.05 240.212L1125.8 242.188ZM1129.94 251.575C1130.26 254.355 1129.08 257.326 1125.86 260.539L1127.99 262.661C1131.57 259.074 1133.39 255.245 1132.92 251.225L1129.94 251.575ZM1125.86 260.539C1123.42 262.981 1120.07 264.188 1115.59 264.001L1115.46 266.999C1120.59 267.212 1124.83 265.819 1127.99 262.661L1125.86 260.539ZM1115.53 264C1111.1 264 1107.73 262.543 1105.25 259.712L1103 261.688C1106.12 265.257 1110.36 267 1115.53 267V264ZM1105.26 259.722L1019.16 159.522L1016.89 161.478L1102.99 261.678L1105.26 259.722ZM1018.03 159H985.926V162H1018.03V159ZM984.426 160.5V249.9H987.426V160.5H984.426ZM984.426 249.9C984.426 253.919 983.072 257.232 980.365 259.939L982.486 262.061C985.779 258.768 987.426 254.681 987.426 249.9H984.426ZM980.329 259.977C977.849 262.634 974.565 264 970.326 264V267C975.286 267 979.403 265.366 982.522 262.023L980.329 259.977ZM1229.43 261L1228.37 262.061L1228.37 262.061L1229.43 261ZM1224.93 60H1226.43V58.5H1224.93V60ZM1149.63 56.1L1148.53 57.1207L1148.57 57.1614L1148.61 57.1992L1149.63 56.1ZM1149.63 35.4L1148.57 34.3393L1148.57 34.3393L1149.63 35.4ZM1330.83 35.4L1329.73 36.4207L1329.77 36.4614L1329.81 36.4992L1330.83 35.4ZM1330.83 56.1L1331.89 57.1607L1331.89 57.1607L1330.83 56.1ZM1256.13 60V58.5H1254.63V60H1256.13ZM1251.63 261L1252.69 262.061L1252.69 262.061L1251.63 261ZM1240.53 264C1236.51 264 1233.2 262.647 1230.49 259.939L1228.37 262.061C1231.66 265.353 1235.75 267 1240.53 267V264ZM1230.49 259.939C1227.78 257.232 1226.43 253.919 1226.43 249.9H1223.43C1223.43 254.681 1225.08 258.768 1228.37 262.061L1230.49 259.939ZM1226.43 249.9V60H1223.43V249.9H1226.43ZM1224.93 58.5H1160.13V61.5H1224.93V58.5ZM1160.13 58.5C1156.27 58.5 1153.14 57.3167 1150.65 55.0008L1148.61 57.1992C1151.71 60.0833 1155.59 61.5 1160.13 61.5V58.5ZM1150.73 55.0793C1148.41 52.5853 1147.23 49.4622 1147.23 45.6H1144.23C1144.23 50.1378 1145.65 54.0147 1148.53 57.1207L1150.73 55.0793ZM1147.23 45.6C1147.23 41.7363 1148.41 38.7387 1150.69 36.4607L1148.57 34.3393C1145.65 37.2613 1144.23 41.0637 1144.23 45.6H1147.23ZM1150.69 36.4607C1153.19 33.9603 1156.3 32.7 1160.13 32.7V29.7C1155.56 29.7 1151.67 31.2396 1148.57 34.3393L1150.69 36.4607ZM1160.13 32.7H1320.63V29.7H1160.13V32.7ZM1320.63 32.7C1324.46 32.7 1327.44 33.9585 1329.73 36.4207L1331.93 34.3793C1329.02 31.2415 1325.2 29.7 1320.63 29.7V32.7ZM1329.81 36.4992C1332.27 38.7855 1333.53 41.7711 1333.53 45.6H1336.53C1336.53 41.0289 1334.99 37.2145 1331.85 34.3008L1329.81 36.4992ZM1333.53 45.6C1333.53 49.429 1332.27 52.539 1329.77 55.0393L1331.89 57.1607C1334.99 54.061 1336.53 50.171 1336.53 45.6H1333.53ZM1329.77 55.0393C1327.49 57.3173 1324.49 58.5 1320.63 58.5V61.5C1325.17 61.5 1328.97 60.0826 1331.89 57.1607L1329.77 55.0393ZM1320.63 58.5H1256.13V61.5H1320.63V58.5ZM1254.63 60V249.9H1257.63V60H1254.63ZM1254.63 249.9C1254.63 253.919 1253.28 257.232 1250.57 259.939L1252.69 262.061C1255.98 258.768 1257.63 254.681 1257.63 249.9H1254.63ZM1250.57 259.939C1247.86 262.647 1244.55 264 1240.53 264V267C1245.31 267 1249.4 265.353 1252.69 262.061L1250.57 259.939Z" fill="black"/>
<g clip-path="url(#clip0)">
<path d="M1592.05 255.625C1592.05 258.244 1591.01 260.756 1589.16 262.608C1587.31 264.46 1584.79 265.5 1582.18 265.5H1414.3C1411.68 265.5 1409.17 264.46 1407.32 262.608C1405.47 260.756 1404.43 258.244 1404.43 255.625C1404.43 253.006 1405.47 250.495 1407.32 248.643C1409.17 246.791 1411.68 245.75 1414.3 245.75H1582.18C1584.79 245.75 1587.31 246.791 1589.16 248.643C1591.01 250.495 1592.05 253.006 1592.05 255.625ZM1641.43 107.5C1641.43 134.894 1619.85 166.75 1592.05 166.75H1576.13L1573.17 184.733C1571.28 196.284 1565.33 206.783 1556.4 214.346C1547.47 221.909 1536.13 226.041 1524.43 226H1472.09C1460.39 226.032 1449.06 221.896 1440.14 214.333C1431.21 206.771 1425.27 196.277 1423.39 184.733L1404.98 74.4882C1404.04 68.8313 1404.34 63.0371 1405.86 57.5083C1407.38 51.9795 1410.09 46.8488 1413.8 42.4725C1417.51 38.0963 1422.12 34.5795 1427.32 32.1666C1432.52 29.7538 1438.19 28.5027 1443.93 28.5003H1552.55C1557.73 28.4805 1562.87 29.49 1567.66 31.4701C1572.46 33.4502 1576.81 36.3617 1580.47 40.0358C1584.12 43.7099 1587.02 48.0735 1588.98 52.8738C1590.94 57.6741 1591.92 62.8155 1591.88 68.0003H1592.05C1622.97 68.0003 1641.43 82.8128 1641.43 107.5ZM1572.02 71.2492C1572.5 68.4203 1572.35 65.5227 1571.58 62.7577C1570.82 59.9927 1569.47 57.4267 1567.62 55.238C1565.76 53.0493 1563.45 51.2905 1560.85 50.0837C1558.25 48.877 1555.42 48.2514 1552.55 48.2503H1443.93C1441.06 48.2516 1438.23 48.8771 1435.63 50.0832C1433.02 51.2893 1430.72 53.0472 1428.86 55.2348C1427.01 57.4224 1425.66 59.9871 1424.89 62.7509C1424.13 65.5147 1423.98 68.4112 1424.45 71.2393L1442.83 181.494C1443.96 188.419 1447.53 194.713 1452.88 199.25C1458.24 203.786 1465.03 206.268 1472.05 206.25H1524.39C1531.4 206.268 1538.2 203.786 1543.55 199.25C1548.91 194.713 1552.47 188.419 1553.61 181.494L1572.02 71.2492ZM1621.68 107.5C1621.68 102.563 1621.68 87.7503 1592.05 87.7503H1589.29L1579.42 147H1592.05C1607.31 147 1621.68 124.742 1621.68 107.5Z" fill="#30257D"/>
<path d="M1416.73 61.6721L1432.41 45.0691H1573.53C1576.3 53.0631 1581.84 69.9736 1581.84 73.6631C1581.84 77.3526 1576.3 127.469 1573.53 152.066C1569.54 164.364 1560.81 190.253 1557.85 195.418C1554.9 200.583 1542.48 211.713 1536.64 216.633H1487.75L1448.09 208.331L1426.88 160.367L1416.73 109.636V61.6721Z" fill="#30257D" stroke="#30257D"/>
</g>
<defs>
<clipPath id="clip0">
<rect width="237" height="237" fill="white" transform="translate(1404.43 28.5)"/>
</clipPath>
</defs>
</svg>
