<svg width="237" height="237" viewBox="0 0 237 237" fill="none" xmlns="http://www.w3.org/2000/svg">
<g clip-path="url(#clip0)">
<path d="M187.625 227.125C187.625 229.744 186.585 232.256 184.733 234.108C182.881 235.96 180.369 237 177.75 237H9.875C7.25599 237 4.74424 235.96 2.89232 234.108C1.0404 232.256 0 229.744 0 227.125C0 224.506 1.0404 221.995 2.89232 220.143C4.74424 218.291 7.25599 217.25 9.875 217.25H177.75C180.369 217.25 182.881 218.291 184.733 220.143C186.585 221.995 187.625 224.506 187.625 227.125ZM237 79.0003C237 106.394 215.423 138.25 187.625 138.25H171.707L168.744 156.233C166.854 167.784 160.908 178.283 151.975 185.846C143.042 193.409 131.706 197.541 120.001 197.5H67.6635C55.9655 197.532 44.6388 193.396 35.7139 185.833C26.7889 178.271 20.8494 167.777 18.96 156.233L0.553 45.9882C-0.388938 40.3313 -0.0878106 34.5371 1.43546 29.0083C2.95873 23.4795 5.6676 18.3488 9.37383 13.9725C13.0801 9.59626 17.6948 6.07951 22.8973 3.66665C28.0997 1.25379 33.7652 0.00268617 39.5 0.000284847H148.125C153.31 -0.0194843 158.447 0.989953 163.239 2.9701C168.031 4.95024 172.382 7.86172 176.041 11.5358C179.699 15.2099 182.592 19.5735 184.552 24.3738C186.511 29.1741 187.499 34.3155 187.457 39.5003H187.625C218.544 39.5003 237 54.3128 237 79.0003ZM167.598 42.7492C168.07 39.9203 167.92 37.0227 167.159 34.2577C166.398 31.4927 165.043 28.9267 163.19 26.738C161.337 24.5493 159.029 22.7905 156.428 21.5837C153.826 20.377 150.993 19.7514 148.125 19.7503H39.5C36.6331 19.7516 33.8009 20.3771 31.2 21.5832C28.5992 22.7893 26.2921 24.5472 24.4391 26.7348C22.5861 28.9224 21.2315 31.4871 20.4695 34.2509C19.7075 37.0147 19.5563 39.9112 20.0265 42.7393L38.4039 152.994C39.5394 159.919 43.1036 166.213 48.4578 170.75C53.812 175.286 60.6065 177.768 67.624 177.75H119.961C126.979 177.768 133.773 175.286 139.128 170.75C144.482 166.213 148.046 159.919 149.182 152.994L167.598 42.7492ZM217.25 79.0003C217.25 74.0628 217.25 59.2503 187.625 59.2503H184.87L174.995 118.5H187.625C202.882 118.5 217.25 96.242 217.25 79.0003Z" fill="#30257D"/>
<path d="M12.3042 33.1721L27.9849 16.5691H169.11C171.877 24.5631 177.411 41.4736 177.411 45.1631C177.411 48.8526 171.877 98.9689 169.11 123.566C165.113 135.864 156.381 161.753 153.429 166.918C150.478 172.083 138.056 183.213 132.214 188.133H83.3279L43.6654 179.831L22.4505 131.867L12.3042 81.1361V33.1721Z" fill="#30257D" stroke="#30257D"/>
</g>
<defs>
<clipPath id="clip0">
<rect width="237" height="237" fill="white"/>
</clipPath>
</defs>
</svg>
