<svg width="1642" height="336" fill="none" xmlns="http://www.w3.org/2000/svg"><path d="M46.302 265.5c-4.4 0-8.1-1.5-11.1-4.5s-4.5-6.7-4.5-11.1V46.8c0-4.6 1.5-8.3 4.5-11.1 3-3 6.7-4.5 11.1-4.5h159.6c4.6 0 8.3 1.5 11.1 4.5 3 2.8 4.5 6.5 4.5 11.1v203.1c0 4.4-1.5 8.1-4.5 11.1-2.8 3-6.5 4.5-11.1 4.5-4.4 0-8.1-1.5-11.1-4.5s-4.5-6.7-4.5-11.1V58.8h-128.4v191.1c0 4.4-1.5 8.1-4.5 11.1-2.8 3-6.5 4.5-11.1 4.5zm250.781 0c-4.4 0-8.1-1.5-11.1-4.5s-4.5-6.7-4.5-11.1V46.8c0-4.6 1.5-8.3 4.5-11.1 3-3 6.7-4.5 11.1-4.5h60c15 0 28.3 3.3 39.9 9.9 11.6 6.6 20.6 15.8 27 27.6 6.6 11.6 9.9 25 9.9 40.2 0 14.6-3.3 27.6-9.9 39-6.4 11.4-15.4 20.3-27 26.7-11.6 6.4-24.9 9.6-39.9 9.6h-44.4v65.7c0 4.4-1.5 8.1-4.5 11.1-2.8 3-6.5 4.5-11.1 4.5zm15.6-110.1h44.4c13.6 0 24.8-4.3 33.6-12.9 8.8-8.8 13.2-20 13.2-33.6 0-9.6-2-18-6-25.2-4-7.4-9.5-13.2-16.5-17.4-7-4.2-15.1-6.3-24.3-6.3h-44.4v95.4zm264.014 113.1c-17.6 0-33.7-2.9-48.3-8.7-14.6-6-27.2-14.3-37.8-24.9-10.4-10.8-18.5-23.5-24.3-38.1-5.8-14.8-8.7-31-8.7-48.6s2.9-33.7 8.7-48.3c5.8-14.6 13.9-27.2 24.3-37.8 10.6-10.8 23.2-19.1 37.8-24.9 14.6-6 30.7-9 48.3-9 17.6 0 33.6 3 48 9 14.6 5.8 27.2 14.1 37.8 24.9 10.6 10.6 18.8 23.2 24.6 37.8 5.8 14.6 8.7 30.7 8.7 48.3 0 17.6-2.9 33.8-8.7 48.6-5.8 14.6-14 27.3-24.6 38.1-10.6 10.6-23.2 18.9-37.8 24.9-14.4 5.8-30.4 8.7-48 8.7zm0-28.2c17.4 0 32.8-4 46.2-12 13.4-8.2 23.9-19.2 31.5-33 7.6-14 11.4-29.7 11.4-47.1 0-17.4-3.8-33-11.4-46.8-7.6-14-18.1-25-31.5-33-13.4-8-28.8-12-46.2-12-17.4 0-32.8 4-46.2 12-13.4 8-23.9 19-31.5 33-7.6 13.8-11.4 29.4-11.4 46.8s3.8 33.1 11.4 47.1c7.6 13.8 18.1 24.8 31.5 33 13.4 8 28.8 12 46.2 12zm183.57 25.2c-4.4 0-8.1-1.5-11.1-4.5s-4.5-6.7-4.5-11.1V46.8c0-4.6 1.5-8.3 4.5-11.1 3-3 6.7-4.5 11.1-4.5h135.6c4.6 0 8.3 1.4 11.1 4.2 2.8 2.6 4.2 6.1 4.2 10.5 0 4.2-1.4 7.6-4.2 10.2-2.8 2.6-6.5 3.9-11.1 3.9h-120v72.9h86.1c4.6 0 8.3 1.4 11.1 4.2 2.8 2.6 4.2 6 4.2 10.2 0 4.2-1.4 7.7-4.2 10.5-2.8 2.6-6.5 3.9-11.1 3.9h-86.1v75h120c4.6 0 8.3 1.3 11.1 3.9 2.8 2.6 4.2 6 4.2 10.2 0 4.4-1.4 8-4.2 10.8-2.8 2.6-6.5 3.9-11.1 3.9h-135.6zm210.059 0c-4.4 0-8.1-1.5-11.1-4.5s-4.5-6.7-4.5-11.1V46.8c0-4.6 1.5-8.3 4.5-11.1 3-3 6.7-4.5 11.1-4.5 4.6 0 8.3 1.5 11.1 4.5 3 2.8 4.5 6.5 4.5 11.1v86.1h30.904l80.7-96.6c2.8-3.4 6.4-5.1 10.8-5.1 4.6-.2 8.3 1.3 11.1 4.5 2.8 3.2 4.1 6.6 3.9 10.2 0 3.4-1.4 6.7-4.2 9.9l-75.9 88.2 83.7 97.2c2.8 3.2 4.3 6.6 4.5 10.2.4 3.4-1.1 6.8-4.5 10.2-2.8 2.8-6.6 4.1-11.4 3.9-4.8 0-8.6-1.6-11.4-4.8l-86.1-100.2h-32.104v89.4c0 4.4-1.5 8.1-4.5 11.1-2.8 3-6.5 4.5-11.1 4.5zm270.204 0c-4.4 0-8.1-1.5-11.1-4.5s-4.5-6.7-4.5-11.1V60h-64.8c-4.2 0-7.7-1.3-10.5-3.9-2.6-2.8-3.9-6.3-3.9-10.5s1.3-7.6 3.9-10.2c2.8-2.8 6.3-4.2 10.5-4.2h160.5c4.2 0 7.6 1.4 10.2 4.2 2.8 2.6 4.2 6 4.2 10.2 0 4.2-1.4 7.7-4.2 10.5-2.6 2.6-6 3.9-10.2 3.9h-64.5v189.9c0 4.4-1.5 8.1-4.5 11.1s-6.7 4.5-11.1 4.5z" fill="#30257D"/><path d="M35.202 261l-1.06 1.061 1.06-1.061zm0-225.3l1.024 1.097.019-.018.018-.018-1.06-1.061zm181.8 0l-1.096 1.023.035.038.038.036 1.023-1.097zm0 225.3l-1.061-1.061-.018.019-.017.019 1.096 1.023zm-22.2 0l-1.061 1.061 1.061-1.061zm-4.5-202.2h1.5v-1.5h-1.5v1.5zm-128.4 0v-1.5h-1.5v1.5h1.5zm-4.5 202.2l-1.06-1.061-.019.019-.017.019L57.402 261zm-11.1 3c-4.019 0-7.332-1.353-10.04-4.061l-2.12 2.122c3.292 3.292 7.379 4.939 12.16 4.939v-3zm-10.04-4.061c-2.706-2.707-4.06-6.02-4.06-10.039h-3c0 4.781 1.647 8.868 4.94 12.161l2.12-2.122zm-4.06-10.039V46.8h-3v203.1h3zm0-203.1c0-4.24 1.366-7.523 4.024-10.003l-2.047-2.194c-3.343 3.12-4.977 7.237-4.977 12.197h3zm4.06-10.04c2.708-2.707 6.021-4.06 10.04-4.06v-3c-4.781 0-8.868 1.647-12.16 4.94l2.12 2.12zm10.04-4.06h159.6v-3h-159.6v3zm159.6 0c4.24 0 7.523 1.366 10.004 4.023l2.193-2.047c-3.12-3.342-7.237-4.976-12.197-4.976v3zm10.077 4.097c2.657 2.48 4.023 5.763 4.023 10.003h3c0-4.96-1.634-9.077-4.976-12.197l-2.047 2.194zm4.023 10.003v203.1h3V46.8h-3zm0 203.1c0 4.019-1.353 7.332-4.061 10.039l2.122 2.122c3.293-3.293 4.939-7.38 4.939-12.161h-3zm-4.096 10.077c-2.481 2.657-5.764 4.023-10.004 4.023v3c4.96 0 9.077-1.634 12.197-4.977l-2.193-2.046zM205.902 264c-4.018 0-7.332-1.353-10.039-4.061l-2.122 2.122c3.293 3.292 7.38 4.939 12.161 4.939v-3zm-10.039-4.061c-2.707-2.707-4.061-6.02-4.061-10.039h-3c0 4.781 1.647 8.868 4.939 12.161l2.122-2.122zm-4.061-10.039V58.8h-3v191.1h3zm-1.5-192.6h-128.4v3h128.4v-3zm-129.9 1.5v191.1h3V58.8h-3zm0 191.1c0 4.019-1.353 7.332-4.06 10.039l2.12 2.122c3.294-3.293 4.94-7.38 4.94-12.161h-3zm-4.096 10.077c-2.48 2.657-5.764 4.023-10.004 4.023v3c4.96 0 9.077-1.634 12.197-4.977l-2.193-2.046zM285.983 261l-1.06 1.061 1.06-1.061zm0-225.3l1.024 1.097.019-.018.018-.018-1.061-1.061zm111 5.4l-.741 1.304.741-1.304zm27 27.6l-1.318.715.007.013.008.014 1.303-.742zm0 79.2l-1.298-.752-.005.009-.005.009 1.308.734zm-27 26.7l.725 1.313-.725-1.313zm-84.3 9.6v-1.5h-1.5v1.5h1.5zm-4.5 76.8l-1.06-1.061-.019.019-.017.019 1.096 1.023zm4.5-105.6h-1.5v1.5h1.5v-1.5zm78-12.9l1.049 1.073.006-.006.006-.006-1.061-1.061zm7.2-58.8l-1.319.713.004.008.004.007 1.311-.728zm-85.2-23.7v-1.5h-1.5V60h1.5zm-15.6 204c-4.018 0-7.332-1.353-10.039-4.061l-2.121 2.122c3.292 3.292 7.379 4.939 12.16 4.939v-3zm-10.039-4.061c-2.707-2.707-4.061-6.02-4.061-10.039h-3c0 4.781 1.647 8.868 4.94 12.161l2.121-2.122zm-4.061-10.039V46.8h-3v203.1h3zm0-203.1c0-4.24 1.366-7.523 4.024-10.003l-2.047-2.194c-3.342 3.12-4.977 7.237-4.977 12.197h3zm4.061-10.04c2.707-2.707 6.021-4.06 10.039-4.06v-3c-4.781 0-8.868 1.647-12.16 4.94l2.121 2.12zm10.039-4.06h60v-3h-60v3zm60 0c14.773 0 27.812 3.248 39.159 9.704l1.483-2.608C385.872 33.052 372.311 29.7 357.083 29.7v3zm39.159 9.704c11.355 6.46 20.156 15.456 26.423 27.011l2.637-1.43c-6.533-12.045-15.732-21.45-27.577-28.189l-1.483 2.608zm26.438 27.038c6.454 11.344 9.703 24.481 9.703 39.458h3c0-15.423-3.35-29.086-10.096-40.942l-2.607 1.484zm9.703 39.458c0 14.365-3.244 27.101-9.698 38.248l2.597 1.504c6.746-11.653 10.101-24.917 10.101-39.752h-3zm-9.708 38.266c-6.261 11.153-15.057 19.854-26.416 26.121l1.449 2.626c11.841-6.533 21.045-15.632 27.583-27.279l-2.616-1.468zm-26.416 26.121c-11.35 6.262-24.395 9.413-39.176 9.413v3c15.22 0 28.775-3.249 40.625-9.787l-1.449-2.626zm-39.176 9.413h-44.4v3h44.4v-3zm-45.9 1.5v65.7h3v-65.7h-3zm0 65.7c0 4.019-1.353 7.332-4.06 10.039l2.121 2.122c3.293-3.293 4.939-7.38 4.939-12.161h-3zm-4.096 10.077c-2.481 2.657-5.764 4.023-10.004 4.023v3c4.961 0 9.077-1.634 12.197-4.977l-2.193-2.046zm5.596-103.077h44.4v-3h-44.4v3zm44.4 0c13.947 0 25.538-4.423 34.649-13.327l-2.097-2.146c-8.489 8.296-19.298 12.473-32.552 12.473v3zm34.661-13.339c9.109-9.109 13.639-20.704 13.639-34.661h-3c0 13.243-4.269 24.048-12.76 32.539l2.121 2.122zm13.639-34.661c0-9.812-2.045-18.471-6.188-25.928l-2.623 1.457c3.857 6.942 5.811 15.083 5.811 24.471h3zm-6.18-25.913c-4.124-7.63-9.81-13.63-17.048-17.973l-1.543 2.572c6.762 4.058 12.076 9.656 15.952 16.827l2.639-1.426zm-17.048-17.973c-7.262-4.357-15.635-6.514-25.072-6.514v3c8.964 0 16.79 2.043 23.529 6.086l1.543-2.572zM357.083 58.5h-44.4v3h44.4v-3zm-45.9 1.5v95.4h3V60h-3zm217.214 199.8l-.57 1.387.008.004.009.003.553-1.394zm-37.8-24.9l-1.08 1.04.01.011.01.01 1.06-1.061zm-24.3-38.1l-1.396.547.002.007 1.394-.554zm0-96.9l-1.394-.554 1.394.554zm24.3-37.8l-1.07-1.05 1.07 1.05zm37.8-24.9l.554 1.394.008-.003.009-.004-.571-1.387zm96.3 0l-.576 1.385.011.004.012.005.553-1.394zm37.8 24.9l-1.07 1.05.01.01 1.06-1.06zm24.6 37.8l1.395-.554-1.395.554zm0 96.9l1.395.554.002-.007-1.397-.547zm-24.6 38.1l1.061 1.061.01-.01-1.071-1.051zm-37.8 24.9l.561 1.391.01-.004-.571-1.387zm-1.8-31.5l.769 1.288.007-.004.007-.005-.783-1.279zm31.5-33l1.314.724.005-.008-1.319-.716zm0-93.9l-1.318.716.005.008 1.313-.724zm-31.5-33l-.768 1.288.768-1.288zm-92.4 0l.769 1.288-.769-1.288zm-31.5 33l1.314.724.005-.008-1.319-.716zm0 93.9l-1.318.716.005.008 1.313-.724zm31.5 33l-.782 1.279.007.005.007.004.768-1.288zm46.2 38.7c-17.433 0-33.342-2.872-47.746-8.594l-1.107 2.788c14.796 5.878 31.087 8.806 48.853 8.806v-3zm-47.729-8.587c-14.427-5.929-26.858-14.121-37.31-24.574l-2.121 2.122c10.747 10.747 23.517 19.155 38.29 25.226l1.141-2.774zm-37.29-24.553c-10.259-10.653-18.255-23.186-23.987-37.614l-2.788 1.108c5.869 14.772 14.072 27.639 24.614 38.586l2.161-2.08zm-23.984-37.607c-5.725-14.608-8.597-30.62-8.597-48.053h-3c0 17.767 2.929 34.155 8.804 49.147l2.793-1.094zm-8.597-48.053c0-17.433 2.872-33.342 8.594-47.746l-2.788-1.108c-5.878 14.796-8.806 31.087-8.806 48.854h3zm8.594-47.746c5.731-14.426 13.725-26.854 23.977-37.303l-2.141-2.102c-10.548 10.751-18.754 23.523-24.624 38.297l2.788 1.108zm23.977-37.303c10.448-10.645 22.87-18.831 37.283-24.557l-1.107-2.788c-14.787 5.874-27.565 14.288-38.317 25.243l2.141 2.102zm37.3-24.564c14.399-5.917 30.303-8.887 47.729-8.887v-3c-17.773 0-34.069 3.03-48.87 9.113l1.141 2.774zm47.729-8.887c17.428 0 33.228 2.97 47.424 8.885l1.153-2.77C610.67 29.73 594.47 26.7 576.697 26.7v3zm47.447 8.894c14.413 5.726 26.835 13.912 37.283 24.557l2.141-2.102c-10.752-10.955-23.53-19.369-38.317-25.243l-1.107 2.788zm37.293 24.567c10.448 10.448 18.538 22.873 24.266 37.293l2.789-1.108c-5.872-14.78-14.182-27.555-24.934-38.307l-2.121 2.122zm24.266 37.293c5.723 14.404 8.594 30.313 8.594 47.746h3c0-17.767-2.928-34.058-8.805-48.854l-2.789 1.108zm8.594 47.746c0 17.433-2.871 33.445-8.596 48.053l2.793 1.094c5.875-14.992 8.803-31.38 8.803-49.147h-3zm-8.594 48.046c-5.729 14.422-13.821 26.951-24.276 37.603l2.141 2.102c10.745-10.948 19.053-23.819 24.924-38.597l-2.789-1.108zm-24.266 37.593c-10.453 10.453-22.883 18.645-37.31 24.574l1.141 2.774c14.773-6.071 27.542-14.479 38.29-25.226l-2.121-2.122zm-37.3 24.57c-14.2 5.719-30.006 8.591-47.44 8.591v3c17.767 0 33.961-2.928 48.561-8.809l-1.121-2.782zm-47.44-16.609c17.639 0 33.311-4.058 46.969-12.212l-1.537-2.576c-13.142 7.846-28.27 11.788-45.432 11.788v3zm46.983-12.221c13.623-8.336 24.306-19.528 32.031-33.555l-2.627-1.448c-7.475 13.573-17.792 24.381-30.969 32.445l1.565 2.558zm32.036-33.563c7.73-14.24 11.581-30.19 11.581-47.816h-3c0 17.174-3.748 32.624-11.218 46.384l2.637 1.432zm11.581-47.816c0-17.626-3.851-33.479-11.586-47.524l-2.627 1.448c7.465 13.555 11.213 28.902 11.213 46.076h3zm-11.581-47.516c-7.726-14.231-18.413-25.431-32.05-33.572l-1.537 2.576c13.163 7.859 23.476 18.66 30.95 32.428l2.637-1.432zm-32.05-33.572c-13.658-8.154-29.33-12.212-46.969-12.212v3c17.162 0 32.29 3.942 45.432 11.788l1.537-2.576zM576.697 54.9c-17.638 0-33.31 4.058-46.968 12.212l1.537 2.576c13.142-7.846 28.27-11.788 45.431-11.788v-3zm-46.968 12.212c-13.637 8.141-24.324 19.34-32.05 33.572l2.637 1.432c7.474-13.769 17.787-24.57 30.95-32.428l-1.537-2.576zm-32.045 33.564c-7.735 14.045-11.587 29.898-11.587 47.524h3c0-17.174 3.749-32.521 11.214-46.076l-2.627-1.448zM486.097 148.2c0 17.626 3.852 33.576 11.582 47.816l2.637-1.432c-7.47-13.76-11.219-29.21-11.219-46.384h-3zm11.587 47.824c7.725 14.027 18.408 25.219 32.031 33.555l1.565-2.558c-13.177-8.064-23.494-18.872-30.969-32.445l-2.627 1.448zm32.045 33.564c13.658 8.154 29.33 12.212 46.968 12.212v-3c-17.161 0-32.289-3.942-45.431-11.788l-1.537 2.576zM749.167 261l-1.061 1.061 1.061-1.061zm0-225.3l1.023 1.097.019-.018.019-.018-1.061-1.061zm157.8-.3l-1.061 1.06.02.02.02.02 1.021-1.1zm0 20.7l1.021 1.1-1.021-1.1zm-131.1 3.9v-1.5h-1.5V60h1.5zm0 72.9h-1.5v1.5h1.5v-1.5zm97.2 4.2l-1.061 1.061.02.019.02.019 1.021-1.099zm0 20.7l1.021 1.099.02-.019.02-.019-1.061-1.061zm-97.2 3.9v-1.5h-1.5v1.5h1.5zm0 75h-1.5v1.5h1.5v-1.5zm131.1 3.9l1.021-1.099-1.021 1.099zm0 21l1.021 1.099.02-.019.02-.019-1.061-1.061zm-146.7 2.4c-4.019 0-7.332-1.353-10.039-4.061l-2.122 2.122c3.293 3.292 7.38 4.939 12.161 4.939v-3zm-10.039-4.061c-2.708-2.707-4.061-6.02-4.061-10.039h-3c0 4.781 1.647 8.868 4.939 12.161l2.122-2.122zm-4.061-10.039V46.8h-3v203.1h3zm0-203.1c0-4.24 1.366-7.523 4.023-10.003l-2.046-2.194c-3.343 3.12-4.977 7.237-4.977 12.197h3zm4.061-10.04c2.707-2.707 6.02-4.06 10.039-4.06v-3c-4.781 0-8.868 1.647-12.161 4.94l2.122 2.12zm10.039-4.06h135.6v-3h-135.6v3zm135.6 0c4.272 0 7.566 1.288 10.039 3.76l2.122-2.12c-3.127-3.128-7.233-4.64-12.161-4.64v3zm10.079 3.8c2.447 2.271 3.721 5.348 3.721 9.4h3c0-4.748-1.526-8.671-4.679-11.6l-2.042 2.2zm3.721 9.4c0 3.829-1.258 6.815-3.721 9.1l2.042 2.2c3.137-2.915 4.679-6.729 4.679-11.3h-3zm-3.721 9.1c-2.468 2.292-5.776 3.5-10.079 3.5v3c4.897 0 8.989-1.393 12.121-4.3l-2.042-2.2zm-10.079 3.5h-120v3h120v-3zm-121.5 1.5v72.9h3V60h-3zm1.5 74.4h86.1v-3h-86.1v3zm86.1 0c4.272 0 7.566 1.288 10.039 3.761l2.122-2.122c-3.127-3.127-7.233-4.639-12.161-4.639v3zm10.079 3.799c2.463 2.287 3.721 5.272 3.721 9.101h3c0-4.571-1.542-8.386-4.679-11.299l-2.042 2.198zm3.721 9.101c0 3.829-1.26 6.939-3.761 9.439l2.122 2.122c3.099-3.1 4.639-6.99 4.639-11.561h-3zm-3.721 9.401c-2.468 2.292-5.776 3.499-10.079 3.499v3c4.897 0 8.989-1.393 12.121-4.301l-2.042-2.198zm-10.079 3.499h-86.1v3h86.1v-3zm-87.6 1.5v75h3v-75h-3zm1.5 76.5h120v-3h-120v3zm120 0c4.303 0 7.611 1.207 10.079 3.499l2.042-2.198c-3.132-2.908-7.224-4.301-12.121-4.301v3zm10.079 3.499c2.463 2.287 3.721 5.272 3.721 9.101h3c0-4.571-1.542-8.386-4.679-11.299l-2.042 2.198zm3.721 9.101c0 4.051-1.274 7.253-3.761 9.739l2.122 2.122c3.113-3.114 4.639-7.112 4.639-11.861h-3zm-3.721 9.701c-2.468 2.292-5.776 3.499-10.079 3.499v3c4.897 0 8.989-1.393 12.121-4.301l-2.042-2.198zM895.867 264h-135.6v3h135.6v-3zm63.359-3l-1.061 1.061 1.061-1.061zm0-225.3l1.023 1.097.019-.018.018-.018-1.06-1.061zm22.2 0l-1.097 1.023.035.038.038.036 1.024-1.097zm4.5 97.2h-1.5v1.5h1.5v-1.5zm30.904 0v1.5h.7l.45-.538-1.15-.962zm80.7-96.6l1.15.962v-.008l-1.15-.954zm10.8-5.1v1.5h.03l.03-.001-.06-1.499zm11.1 4.5l-1.13.988 1.13-.988zm3.9 10.2l-1.5-.083v.083h1.5zm-4.2 9.9l-1.13-.988-.01.01 1.14.978zm-75.9 88.2l-1.14-.978-.84.978.84.979 1.14-.979zm83.7 97.2l-1.14.979.01.009 1.13-.988zm4.5 10.2l-1.5.083v.046l.01.046 1.49-.175zm-4.5 10.2l-1.07-1.061 1.07 1.061zm-11.4 3.9l.06-1.499-.03-.001h-.03v1.5zm-11.4-4.8l-1.14.978.01.01 1.13-.988zm-86.1-100.2l1.13-.978-.45-.522h-.68v1.5zm-32.104 0V159h-1.5v1.5h1.5zm-4.5 100.5l-1.061-1.061-.018.019-.018.019 1.097 1.023zm-11.1 3c-4.019 0-7.332-1.353-10.04-4.061l-2.121 2.122c3.293 3.292 7.379 4.939 12.161 4.939v-3zm-10.04-4.061c-2.707-2.707-4.06-6.02-4.06-10.039h-3c0 4.781 1.646 8.868 4.939 12.161l2.121-2.122zm-4.06-10.039V46.8h-3v203.1h3zm0-203.1c0-4.24 1.365-7.523 4.023-10.003l-2.047-2.194c-3.342 3.12-4.976 7.237-4.976 12.197h3zm4.06-10.04c2.708-2.707 6.021-4.06 10.04-4.06v-3c-4.782 0-8.868 1.647-12.161 4.94l2.121 2.12zm10.04-4.06c4.239 0 7.523 1.366 10.003 4.023l2.193-2.047c-3.119-3.342-7.236-4.976-12.196-4.976v3zm10.076 4.097c2.658 2.48 4.024 5.763 4.024 10.003h3c0-4.96-1.635-9.077-4.977-12.197l-2.047 2.194zm4.024 10.003v86.1h3V46.8h-3zm1.5 87.6h30.904v-3h-30.904v3zm32.054-.538l80.7-96.6-2.31-1.924-80.7 96.6 2.31 1.924zm80.7-96.608c2.52-3.055 5.69-4.554 9.65-4.554v-3c-4.85 0-8.88 1.9-11.96 5.646l2.31 1.908zm9.71-4.555c4.19-.182 7.43 1.163 9.91 3.989l2.25-1.976c-3.12-3.574-7.28-5.229-12.29-5.01l.13 2.997zm9.91 3.989c2.59 2.961 3.7 5.99 3.53 9.129l2.99.166c.23-4.06-1.26-7.832-4.27-11.27l-2.25 1.975zm3.53 9.212c0 2.952-1.21 5.915-3.83 8.912l2.25 1.976c2.98-3.403 4.58-7.04 4.58-10.888h-3zm-3.84 8.922l-75.9 88.2 2.27 1.956 75.9-88.2-2.27-1.956zm-75.9 90.157l83.7 97.2 2.27-1.958-83.7-97.2-2.27 1.958zm83.71 97.209c2.62 2.995 3.95 6.087 4.13 9.295l2.99-.166c-.22-3.992-1.89-7.7-4.87-11.105l-2.25 1.976zm4.14 9.387c.32 2.78-.86 5.751-4.08 8.964l2.13 2.122c3.58-3.587 5.4-7.416 4.93-11.436l-2.98.35zm-4.08 8.964c-2.44 2.442-5.79 3.649-10.27 3.462l-.13 2.998c5.13.213 9.37-1.18 12.53-4.338l-2.13-2.122zM1115.53 264c-4.43 0-7.8-1.457-10.28-4.288l-2.25 1.976c3.12 3.569 7.36 5.312 12.53 5.312v-3zm-10.27-4.278l-86.1-100.2-2.27 1.956 86.1 100.2 2.27-1.956zM1018.03 159h-32.104v3h32.104v-3zm-33.604 1.5v89.4h3v-89.4h-3zm0 89.4c0 4.019-1.354 7.332-4.061 10.039l2.121 2.122c3.293-3.293 4.94-7.38 4.94-12.161h-3zm-4.097 10.077c-2.48 2.657-5.764 4.023-10.003 4.023v3c4.96 0 9.077-1.634 12.196-4.977l-2.193-2.046zM1229.43 261l-1.06 1.061 1.06-1.061zm-4.5-201h1.5v-1.5h-1.5V60zm-75.3-3.9l-1.1 1.02.04.041.04.038 1.02-1.099zm0-20.7l-1.06-1.06 1.06 1.06zm181.2 0l-1.1 1.02.04.041.04.038 1.02-1.099zm0 20.7l1.06 1.06-1.06-1.06zm-74.7 3.9v-1.5h-1.5V60h1.5zm-4.5 201l1.06 1.061-1.06-1.061zm-11.1 3c-4.02 0-7.33-1.353-10.04-4.061l-2.12 2.122c3.29 3.292 7.38 4.939 12.16 4.939v-3zm-10.04-4.061c-2.71-2.707-4.06-6.02-4.06-10.039h-3c0 4.781 1.65 8.868 4.94 12.161l2.12-2.122zm-4.06-10.039V60h-3v189.9h3zm-1.5-191.4h-64.8v3h64.8v-3zm-64.8 0c-3.86 0-6.99-1.183-9.48-3.5l-2.04 2.2c3.1 2.883 6.98 4.3 11.52 4.3v-3zm-9.4-3.42c-2.32-2.495-3.5-5.618-3.5-9.48h-3c0 4.538 1.42 8.415 4.3 11.52l2.2-2.04zm-3.5-9.48c0-3.864 1.18-6.861 3.46-9.14l-2.12-2.12c-2.92 2.921-4.34 6.724-4.34 11.26h3zm3.46-9.14c2.5-2.5 5.61-3.76 9.44-3.76v-3c-4.57 0-8.46 1.54-11.56 4.64l2.12 2.12zm9.44-3.76h160.5v-3h-160.5v3zm160.5 0c3.83 0 6.81 1.258 9.1 3.72l2.2-2.04c-2.91-3.139-6.73-4.68-11.3-4.68v3zm9.18 3.8c2.46 2.285 3.72 5.271 3.72 9.1h3c0-4.571-1.54-8.386-4.68-11.3l-2.04 2.2zm3.72 9.1c0 3.829-1.26 6.939-3.76 9.44l2.12 2.12c3.1-3.099 4.64-6.989 4.64-11.56h-3zm-3.76 9.44c-2.28 2.277-5.28 3.46-9.14 3.46v3c4.54 0 8.34-1.417 11.26-4.34l-2.12-2.12zm-9.14 3.46h-64.5v3h64.5v-3zm-66 1.5v189.9h3V60h-3zm0 189.9c0 4.019-1.35 7.332-4.06 10.039l2.12 2.122c3.29-3.293 4.94-7.38 4.94-12.161h-3zm-4.06 10.039c-2.71 2.708-6.02 4.061-10.04 4.061v3c4.78 0 8.87-1.647 12.16-4.939l-2.12-2.122z" fill="#000"/><g clip-path="url(#clip0)" fill="#30257D"><path d="M1592.05 255.625a9.882 9.882 0 01-2.89 6.983 9.88 9.88 0 01-6.98 2.892H1414.3c-2.62 0-5.13-1.04-6.98-2.892a9.882 9.882 0 010-13.965 9.864 9.864 0 016.98-2.893h167.88c2.61 0 5.13 1.041 6.98 2.893a9.88 9.88 0 012.89 6.982zm49.38-148.125c0 27.394-21.58 59.25-49.38 59.25h-15.92l-2.96 17.983a49.23 49.23 0 01-16.77 29.613A49.21 49.21 0 011524.43 226h-52.34a49.198 49.198 0 01-31.95-11.667 49.138 49.138 0 01-16.75-29.6l-18.41-110.245a39.581 39.581 0 01.88-16.98 39.407 39.407 0 017.94-15.036 39.548 39.548 0 0113.52-10.305 39.507 39.507 0 0116.61-3.667h108.62c5.18-.02 10.32.99 15.11 2.97a39.15 39.15 0 0112.81 8.566 39.319 39.319 0 018.51 12.838c1.96 4.8 2.94 9.941 2.9 15.126h.17c30.92 0 49.38 14.813 49.38 39.5zm-69.41-36.25a19.49 19.49 0 00-.44-8.492 19.758 19.758 0 00-3.96-7.52 19.859 19.859 0 00-6.77-5.154 19.725 19.725 0 00-8.3-1.834h-108.62c-2.87.002-5.7.627-8.3 1.833a19.761 19.761 0 00-6.77 5.152 19.905 19.905 0 00-3.97 7.516c-.76 2.764-.91 5.66-.44 8.488l18.38 110.255a29.526 29.526 0 0029.22 24.756h52.34a29.524 29.524 0 0019.16-7 29.54 29.54 0 0010.06-17.756l18.41-110.245zm49.66 36.25c0-4.937 0-19.75-29.63-19.75h-2.76l-9.87 59.25h12.63c15.26 0 29.63-22.258 29.63-39.5z"/><path d="M1416.73 61.672l15.68-16.603h141.12c2.77 7.994 8.31 24.905 8.31 28.594 0 3.69-5.54 53.806-8.31 78.403-3.99 12.298-12.72 38.187-15.68 43.352-2.95 5.165-15.37 16.295-21.21 21.215h-48.89l-39.66-8.302-21.21-47.964-10.15-50.731V61.672z" stroke="#30257D"/></g><defs><clipPath id="clip0"><path fill="#fff" transform="translate(1404.43 28.5)" d="M0 0h237v237H0z"/></clipPath></defs></svg>